# Blender v2.82 (sub 7) OBJ File: ''
# www.blender.org
mtllib default.mtl
usemtl default
v -0.012472 -0.544376 0.345633
v -0.010825 -0.544376 0.333120
v -0.009057 -0.544376 0.332887
v -0.009057 -0.544376 0.346548
v -0.004227 -0.544376 0.344548
v -0.002459 -0.544376 0.337950
v -0.002459 -0.544376 0.341486
v -0.002226 -0.544376 0.339718
v -0.003141 -0.544376 0.343133
v -0.003141 -0.544376 0.336303
v -0.004227 -0.544376 0.334888
v -0.005642 -0.544376 0.345633
v -0.005642 -0.544376 0.333802
v -0.007289 -0.544376 0.346315
v -0.007289 -0.544376 0.333120
v -0.010825 -0.544376 0.346315
v -0.012472 -0.544376 0.333802
v -0.013887 -0.544376 0.344548
v -0.013887 -0.544376 0.334888
v -0.014972 -0.544376 0.343133
v -0.014972 -0.544376 0.336303
v -0.015654 -0.544376 0.341486
v -0.015654 -0.544376 0.337950
v -0.015887 -0.544376 0.339718
v 0.000603 -0.537545 0.330058
v -0.002226 -0.537545 0.327887
v 0.002774 -0.537545 0.332887
v 0.004139 -0.537545 0.336182
v 0.004604 -0.537545 0.339718
v 0.004139 -0.537545 0.343253
v 0.002774 -0.537545 0.346548
v 0.000603 -0.537545 0.349377
v -0.002226 -0.537545 0.351548
v -0.005521 -0.537545 0.352913
v -0.009057 -0.537545 0.353379
v -0.012592 -0.537545 0.352913
v -0.015887 -0.537545 0.351548
v -0.018716 -0.537545 0.349377
v -0.020887 -0.537545 0.346548
v -0.022252 -0.537545 0.343253
v -0.022718 -0.537545 0.339718
v -0.022252 -0.537545 0.336182
v -0.020887 -0.537545 0.332887
v -0.018716 -0.537545 0.330058
v -0.015887 -0.537545 0.327887
v -0.012592 -0.537545 0.326522
v -0.009057 -0.537545 0.326057
v -0.005521 -0.537545 0.326522
v -0.005642 -0.469241 0.333802
v -0.004227 -0.469241 0.334888
v -0.003141 -0.469241 0.336303
v -0.002459 -0.469241 0.337950
v -0.002226 -0.469241 0.339718
v -0.002459 -0.469241 0.341486
v -0.003141 -0.469241 0.343133
v -0.004227 -0.469241 0.344548
v -0.005642 -0.469241 0.345633
v -0.007289 -0.469241 0.346315
v -0.009057 -0.475491 0.347173
v -0.009057 -0.469241 0.346548
v -0.010825 -0.469241 0.346315
v -0.012472 -0.469241 0.345633
v -0.013887 -0.469241 0.344548
v -0.014972 -0.469241 0.343133
v -0.015654 -0.469241 0.341486
v -0.015887 -0.469241 0.339718
v -0.015654 -0.469241 0.337950
v -0.014972 -0.469241 0.336303
v -0.013887 -0.469241 0.334888
v -0.012472 -0.469241 0.333802
v -0.010825 -0.469241 0.333120
v -0.009057 -0.475491 0.332262
v -0.009057 -0.469241 0.332887
v -0.007289 -0.469241 0.333120
vt 0.640926 0.232207
vt 0.641187 0.232360
vt 0.640561 0.231728
vt 0.640482 0.231434
vt 0.641479 0.232439
vt 0.640482 0.231129
vt 0.641782 0.232438
vt 0.640561 0.230835
vt 0.642074 0.232360
vt 0.640712 0.230571
vt 0.642336 0.232207
vt 0.640925 0.230355
vt 0.642549 0.231992
vt 0.641187 0.230203
vt 0.642700 0.231728
vt 0.641479 0.230124
vt 0.642779 0.231434
vt 0.641782 0.230124
vt 0.642779 0.231129
vt 0.642074 0.230203
vt 0.642700 0.230835
vt 0.642335 0.230355
vt 0.642549 0.230571
vt 0.639334 0.230977
vt 0.639490 0.230388
vt 0.639334 0.231586
vt 0.639793 0.232702
vt 0.640712 0.231992
vt 0.639490 0.232175
vt 0.708132 0.389826
vt 0.707529 0.389778
vt 0.707889 0.390978
vt 0.640220 0.233133
vt 0.640744 0.233438
vt 0.641328 0.233596
vt 0.641933 0.233596
vt 0.642517 0.233438
vt 0.643041 0.233133
vt 0.694688 0.390977
vt 0.694903 0.389823
vt 0.694387 0.390954
vt 0.694300 0.389776
vt 0.643468 0.232702
vt 0.643770 0.232174
vt 0.643927 0.231586
vt 0.643927 0.230977
vt 0.643770 0.230388
vt 0.643468 0.229860
vt 0.697681 0.390954
vt 0.697983 0.390978
vt 0.697622 0.389778
vt 0.698225 0.389826
vt 0.642517 0.229125
vt 0.643040 0.229429
vt 0.641933 0.228967
vt 0.641328 0.228967
vt 0.640744 0.229125
vt 0.684452 0.390954
vt 0.684753 0.390977
vt 0.684365 0.389776
vt 0.684968 0.389823
vt 0.639793 0.229860
vt 0.683786 0.389731
vt 0.685152 0.378132
vt 0.683271 0.389690
vt 0.709449 0.378224
vt 0.709236 0.389914
vt 0.709662 0.378241
vt 0.709188 0.378203
vt 0.708714 0.389873
vt 0.708897 0.378180
vt 0.708595 0.378155
vt 0.706947 0.389731
vt 0.708304 0.378132
vt 0.706425 0.389690
vt 0.708043 0.378111
vt 0.696453 0.389945
vt 0.696453 0.378239
vt 0.696017 0.389911
vt 0.696235 0.378222
vt 0.695488 0.389869
vt 0.695971 0.378201
vt 0.695607 0.379244
vt 0.695678 0.378178
vt 0.695377 0.378154
vt 0.693721 0.389731
vt 0.694830 0.378111
vt 0.693206 0.389690
vt 0.695087 0.378132
vt 0.699755 0.389948
vt 0.699755 0.378241
vt 0.699329 0.389914
vt 0.699542 0.378224
vt 0.698807 0.389873
vt 0.699281 0.378203
vt 0.698990 0.378180
vt 0.698689 0.378155
vt 0.698398 0.378132
vt 0.697040 0.389731
vt 0.698137 0.378111
vt 0.696518 0.389690
vt 0.686518 0.389945
vt 0.686518 0.378239
vt 0.686082 0.389911
vt 0.686300 0.378222
vt 0.685553 0.389869
vt 0.686036 0.378201
vt 0.685672 0.379244
vt 0.685743 0.378178
vt 0.685442 0.378154
vt 0.635876 0.231728
vt 0.636241 0.232207
vt 0.636027 0.231992
vt 0.636059 0.233438
vt 0.635536 0.233133
vt 0.704587 0.378111
vt 0.704227 0.379311
vt 0.704286 0.378135
vt 0.634806 0.230388
vt 0.635797 0.231129
vt 0.634649 0.230977
vt 0.638356 0.233133
vt 0.637865 0.231992
vt 0.638783 0.232702
vt 0.637651 0.232207
vt 0.686583 0.379398
vt 0.688464 0.390957
vt 0.688206 0.390977
vt 0.706360 0.390848
vt 0.705934 0.379175
vt 0.706360 0.379140
vt 0.692295 0.389845
vt 0.692659 0.390888
vt 0.692366 0.390911
vt 0.690410 0.379358
vt 0.692065 0.390934
vt 0.691776 0.390957
vt 0.689895 0.379398
vt 0.688865 0.379219
vt 0.688984 0.389845
vt 0.688279 0.379265
vn 0.6483 -0.7289 0.2203
vn 0.5076 -0.7919 0.3394
vn 0.6180 -0.7577 -0.2100
vn 0.4689 -0.8257 -0.3135
vn 0.3416 -0.8552 0.3898
vn 0.3144 -0.8789 -0.3587
vn 0.1954 -0.8969 0.3966
vn 0.1833 -0.9100 -0.3719
vn 0.0768 -0.9190 0.3867
vn 0.0648 -0.9681 -0.2419
vn 0.0000 -0.9696 0.2445
vn 0.0245 -0.9273 -0.3735
vn -0.0742 -0.9246 0.3736
vn -0.0768 -0.9190 -0.3867
vn -0.1832 -0.9100 0.3719
vn -0.1955 -0.8969 -0.3966
vn -0.3144 -0.8789 0.3587
vn -0.3417 -0.8551 -0.3898
vn -0.4690 -0.8257 0.3135
vn -0.5077 -0.7919 -0.3393
vn -0.6180 -0.7576 0.2100
vn -0.6482 -0.7289 -0.2203
vn -0.7031 -0.7111 0.0000
vn 0.6917 0.0000 -0.7222
vn 0.4813 -0.0000 -0.8766
vn 0.8550 0.0000 -0.5186
vn 0.9995 0.0313 0.0000
vn 0.7031 -0.7111 0.0000
vn 0.9601 -0.0000 -0.2795
vn 0.9601 -0.0000 0.2795
vn 0.8550 0.0000 0.5186
vn 0.7090 -0.0223 0.7049
vn 0.5226 0.0000 0.8526
vn 0.2626 0.0142 0.9648
vn 0.0000 -0.0558 0.9984
vn -0.2381 0.0000 0.9712
vn -0.4812 -0.0000 0.8766
vn -0.6917 -0.0000 0.7222
vn -0.8551 -0.0000 0.5185
vn -0.9663 0.0154 0.2569
vn -0.9995 0.0185 -0.0244
vn -0.9601 -0.0000 -0.2796
vn -0.8551 -0.0000 -0.5185
vn -0.7090 -0.0222 -0.7049
vn -0.5227 0.0000 -0.8525
vn -0.2626 0.0142 -0.9648
vn 0.2360 -0.0178 -0.9716
vn -0.0032 -0.0331 -0.9994
vn 0.5530 0.1001 -0.8271
vn 0.8925 0.1002 -0.4399
vn 0.7482 0.1001 -0.6559
vn 0.9759 0.1001 -0.1937
vn 0.9950 0.0995 0.0000
vn 0.9760 0.0993 0.1938
vn 0.8925 0.0993 0.4399
vn 0.7034 0.0995 0.7037
vn 0.4398 0.1001 0.8925
vn 0.2469 0.0996 0.9639
vn 0.0262 0.0995 0.9947
vn -0.1116 0.1003 0.9887
vn -0.3201 0.1001 0.9421
vn -0.7482 0.1001 0.6558
vn -0.5529 0.1001 0.8272
vn -0.8925 0.1001 0.4397
vn -0.9611 0.0995 0.2575
vn -0.9929 0.0993 0.0654
vn -0.9760 0.0993 -0.1939
vn -0.8926 0.0993 -0.4398
vn -0.7037 0.0995 -0.7035
vn -0.4398 0.1001 -0.8925
vn -0.2469 0.0996 -0.9639
vn -0.0262 0.0995 -0.9947
vn 0.1115 0.1003 -0.9887
vn 0.3201 0.1001 -0.9421
f 7/1/1 9/2/2 6/3/3
f 6/3/3 9/2/2 10/4/4
f 9/2/2 5/5/5 10/4/4
f 10/4/4 5/5/5 11/6/6
f 5/5/5 12/7/7 11/6/6
f 11/6/6 12/7/7 13/8/8
f 12/7/7 14/9/9 13/8/8
f 13/8/8 14/9/9 15/10/10
f 14/9/9 4/11/11 15/10/10
f 15/10/10 4/11/11 3/12/12
f 4/11/11 16/13/13 3/12/12
f 3/12/12 16/13/13 2/14/14
f 16/13/13 1/15/15 2/14/14
f 2/14/14 1/15/15 17/16/16
f 1/15/15 18/17/17 17/16/16
f 17/16/16 18/17/17 19/18/18
f 18/17/17 20/19/19 19/18/18
f 19/18/18 20/19/19 21/20/20
f 20/19/19 22/21/21 21/20/20
f 21/20/20 22/21/21 23/22/22
f 24/23/23 23/22/22 22/21/21
f 25/24/24 11/6/6 26/25/25
f 13/8/8 26/25/25 11/6/6
f 27/26/26 10/4/4 25/24/24
f 11/6/6 25/24/24 10/4/4
f 10/4/4 27/26/26 6/3/3
f 29/27/27 8/28/28 28/29/29
f 29/30/27 30/31/30 8/32/28
f 30/33/30 31/34/31 7/1/1
f 9/2/2 7/1/1 31/34/31
f 31/34/31 32/35/32 9/2/2
f 5/5/5 9/2/2 32/35/32
f 12/7/7 5/5/5 33/36/33
f 33/36/33 34/37/34 12/7/7
f 14/9/9 12/7/7 34/37/34
f 34/37/34 35/38/35 14/9/9
f 4/11/11 14/9/9 35/38/35
f 4/39/11 35/40/35 16/41/13
f 36/42/36 16/41/13 35/40/35
f 16/13/13 36/43/36 1/15/15
f 37/44/37 1/15/15 36/43/36
f 1/15/15 37/44/37 18/17/17
f 38/45/38 18/17/17 37/44/37
f 18/17/17 38/45/38 20/19/19
f 39/46/39 20/19/19 38/45/38
f 20/19/19 39/46/39 22/21/21
f 40/47/40 22/21/21 39/46/39
f 22/21/21 40/47/40 24/23/23
f 41/48/41 24/23/23 40/47/40
f 23/49/22 24/50/23 42/51/42
f 41/52/41 42/51/42 24/50/23
f 21/20/20 23/22/22 43/53/43
f 42/54/42 43/53/43 23/22/22
f 19/18/18 21/20/20 44/55/44
f 43/53/43 44/55/44 21/20/20
f 17/16/16 19/18/18 45/56/45
f 44/55/44 45/56/45 19/18/18
f 2/14/14 17/16/16 46/57/46
f 45/56/45 46/57/46 17/16/16
f 15/58/10 3/59/12 48/60/47
f 47/61/48 48/60/47 3/59/12
f 26/25/25 13/8/8 48/62/47
f 15/10/10 48/62/47 13/8/8
f 26/63/25 49/64/49 25/65/24
f 51/66/50 27/67/26 50/68/51
f 52/69/52 28/70/29 51/66/50
f 27/67/26 51/66/50 28/70/29
f 53/71/53 29/30/27 52/69/52
f 28/70/29 52/69/52 29/30/27
f 30/31/30 29/30/27 54/72/54
f 53/71/53 54/72/54 29/30/27
f 31/73/31 30/31/30 55/74/55
f 54/72/54 55/74/55 30/31/30
f 32/75/32 31/73/31 56/76/56
f 55/74/55 56/76/56 31/73/31
f 32/77/32 56/78/56 33/79/33
f 57/80/57 33/79/33 56/78/56
f 33/79/33 57/80/57 34/81/34
f 58/82/58 34/81/34 57/80/57
f 35/40/35 34/81/34 59/83/59
f 34/81/34 58/82/58 59/83/59
f 35/40/35 59/83/59 36/42/36
f 59/83/59 60/84/60 36/42/36
f 61/85/61 36/42/36 60/84/60
f 36/42/36 61/85/61 37/86/37
f 63/87/62 38/88/38 62/89/63
f 38/90/38 63/91/62 39/92/39
f 64/93/64 39/92/39 63/91/62
f 39/92/39 64/93/64 40/94/40
f 65/95/65 40/94/40 64/93/64
f 65/95/65 66/96/66 40/94/40
f 41/52/41 40/94/40 66/96/66
f 66/96/66 67/97/67 41/52/41
f 42/51/42 41/52/41 67/97/67
f 67/97/67 68/98/68 42/51/42
f 43/99/43 42/51/42 68/98/68
f 68/98/68 69/100/69 43/99/43
f 44/101/44 43/99/43 69/100/69
f 44/102/44 69/103/69 45/104/45
f 70/105/70 45/104/45 69/103/69
f 45/104/45 70/105/70 46/106/46
f 71/107/71 46/106/46 70/105/70
f 46/106/46 71/107/71 72/108/72
f 73/109/73 72/108/72 71/107/71
f 47/61/48 72/108/72 48/60/47
f 72/108/72 73/109/73 48/60/47
f 74/110/74 48/60/47 73/109/73
f 48/60/47 74/110/74 26/63/25
f 49/64/49 26/63/25 74/110/74
f 7/111/1 6/112/3 8/113/28
f 6/112/3 27/114/26 28/115/29
f 28/115/29 8/113/28 6/112/3
f 8/116/28 30/117/30 7/118/1
f 33/119/33 5/120/5 32/121/32
f 47/122/48 2/123/14 46/124/46
f 2/123/14 47/122/48 3/125/12
f 25/126/24 49/127/49 50/128/51
f 50/129/51 27/130/26 25/131/24
f 59/132/59 58/133/58 60/134/60
f 37/135/37 61/136/61 62/137/63
f 62/137/63 38/138/38 37/135/37
f 46/139/46 72/140/72 47/141/48
