# Blender v2.82 (sub 7) OBJ File: ''
# www.blender.org
mtllib default.mtl
usemtl default
v 0.209516 -0.478940 0.520448
v 0.205714 -0.478940 0.521467
v 0.213318 -0.478940 0.521467
v 0.204139 -0.478940 0.522675
v 0.214893 -0.478940 0.522675
v 0.216101 -0.478940 0.524250
v 0.202171 -0.478940 0.526084
v 0.201912 -0.478940 0.528052
v 0.216861 -0.478940 0.530020
v 0.211484 -0.478940 0.535396
v 0.209516 -0.478940 0.535655
v 0.207548 -0.478940 0.535396
v 0.213318 -0.478940 0.534637
v 0.205714 -0.478940 0.534637
v 0.214893 -0.478940 0.533428
v 0.204139 -0.478940 0.533428
v 0.216101 -0.478940 0.531854
v 0.202931 -0.478940 0.531854
v 0.202171 -0.478940 0.530020
v 0.217120 -0.478940 0.528052
v 0.216861 -0.478940 0.526084
v 0.202931 -0.478940 0.524250
v 0.211484 -0.478940 0.520707
v 0.207548 -0.478940 0.520707
v 0.209516 -0.478292 0.539924
v 0.206443 -0.478292 0.539519
v 0.212589 -0.478292 0.539519
v 0.215452 -0.478292 0.538333
v 0.217911 -0.478292 0.536447
v 0.219798 -0.478292 0.533988
v 0.220984 -0.478292 0.531124
v 0.221388 -0.478292 0.528052
v 0.220984 -0.478292 0.524979
v 0.219798 -0.478292 0.522116
v 0.217911 -0.478292 0.519657
v 0.215452 -0.478292 0.517770
v 0.212589 -0.478292 0.516584
v 0.209516 -0.478292 0.516179
v 0.206443 -0.478292 0.516584
v 0.203580 -0.478292 0.517770
v 0.201121 -0.478292 0.519657
v 0.199234 -0.478292 0.522116
v 0.198048 -0.478292 0.524979
v 0.197644 -0.478292 0.528052
v 0.198048 -0.478292 0.531124
v 0.199234 -0.478292 0.533988
v 0.201121 -0.478292 0.536447
v 0.203580 -0.478292 0.538333
v 0.205980 -0.476136 0.541247
v 0.209516 -0.476136 0.541712
v 0.213052 -0.476136 0.541247
v 0.216346 -0.476136 0.539882
v 0.219176 -0.476136 0.537711
v 0.221347 -0.476136 0.534882
v 0.222711 -0.476136 0.531587
v 0.223177 -0.476136 0.528052
v 0.222711 -0.476136 0.524516
v 0.221347 -0.476136 0.521221
v 0.219176 -0.476136 0.518392
v 0.216346 -0.476136 0.516221
v 0.213052 -0.476136 0.514856
v 0.209516 -0.476136 0.514391
v 0.205980 -0.476136 0.514856
v 0.202686 -0.476136 0.516221
v 0.199856 -0.476136 0.518392
v 0.197685 -0.476136 0.521221
v 0.196321 -0.476136 0.524516
v 0.195855 -0.476136 0.528052
v 0.196321 -0.476136 0.531587
v 0.197685 -0.476136 0.534882
v 0.199856 -0.476136 0.537711
v 0.202686 -0.476136 0.539882
v 0.209516 -0.469735 0.541712
v 0.205980 -0.469735 0.541247
v 0.213052 -0.469735 0.541247
v 0.216346 -0.469735 0.539882
v 0.219176 -0.469735 0.537711
v 0.221347 -0.469735 0.534882
v 0.222711 -0.469735 0.531587
v 0.223177 -0.469735 0.528052
v 0.222711 -0.469735 0.524516
v 0.221347 -0.469735 0.521221
v 0.219176 -0.469735 0.518392
v 0.216346 -0.469735 0.516221
v 0.213052 -0.469735 0.514856
v 0.209516 -0.469735 0.514391
v 0.205980 -0.469735 0.514856
v 0.202686 -0.469735 0.516221
v 0.199856 -0.469735 0.518392
v 0.197685 -0.469735 0.521221
v 0.196321 -0.469735 0.524516
v 0.195855 -0.469735 0.528052
v 0.196321 -0.469735 0.531587
v 0.197685 -0.469735 0.534882
v 0.199856 -0.469735 0.537711
v 0.202686 -0.469735 0.539882
vt 0.664129 0.541301
vt 0.664454 0.541388
vt 0.663792 0.541301
vt 0.663467 0.541388
vt 0.664746 0.541558
vt 0.663176 0.541558
vt 0.664984 0.541798
vt 0.662938 0.541798
vt 0.665152 0.542091
vt 0.662770 0.542092
vt 0.665239 0.542419
vt 0.662683 0.542419
vt 0.665239 0.542758
vt 0.662683 0.542758
vt 0.665152 0.543086
vt 0.662770 0.543086
vt 0.664984 0.543380
vt 0.662938 0.543380
vt 0.664746 0.543619
vt 0.663176 0.543620
vt 0.664454 0.543789
vt 0.663468 0.543789
vt 0.664129 0.543877
vt 0.663793 0.543877
vt 0.664223 0.540577
vt 0.664731 0.540715
vt 0.663698 0.540578
vt 0.663190 0.540715
vt 0.662735 0.540980
vt 0.662364 0.541354
vt 0.662101 0.541813
vt 0.661965 0.542324
vt 0.661965 0.542854
vt 0.662101 0.543365
vt 0.662364 0.543824
vt 0.662736 0.544198
vt 0.663191 0.544463
vt 0.663698 0.544600
vt 0.664224 0.544600
vt 0.664731 0.544463
vt 0.665187 0.544198
vt 0.665558 0.543823
vt 0.665821 0.543365
vt 0.665957 0.542853
vt 0.665957 0.542324
vt 0.665821 0.541812
vt 0.665558 0.541354
vt 0.665186 0.540979
vt 0.620897 0.234032
vt 0.621262 0.234071
vt 0.620897 0.234543
vt 0.621262 0.234660
vt 0.620897 0.233502
vt 0.621262 0.233462
vt 0.621262 0.232874
vt 0.620897 0.232991
vt 0.662123 0.541168
vt 0.659571 0.235034
vt 0.659571 0.235562
vt 0.659205 0.234917
vt 0.659205 0.235376
vt 0.659571 0.234446
vt 0.659205 0.234406
vt 0.659571 0.233836
vt 0.659205 0.233876
vt 0.659571 0.233248
vt 0.659205 0.233365
vt 0.659205 0.232906
vt 0.659571 0.232720
vt 0.662123 0.544010
vt 0.662551 0.544441
vt 0.537176 0.235075
vt 0.536810 0.234889
vt 0.537176 0.234548
vt 0.536810 0.234431
vt 0.537176 0.233959
vt 0.536810 0.233919
vt 0.536810 0.233389
vt 0.537176 0.233350
vt 0.536810 0.232878
vt 0.537176 0.232761
vt 0.536810 0.232419
vt 0.537176 0.232233
vt 0.665799 0.544010
vt 0.648336 0.545772
vt 0.648336 0.546299
vt 0.647970 0.545655
vt 0.647970 0.546113
vt 0.647970 0.545143
vt 0.648336 0.544574
vt 0.648336 0.545183
vt 0.647970 0.544614
vt 0.648336 0.543985
vt 0.647970 0.544102
vt 0.648336 0.543457
vt 0.647970 0.543643
vt 0.665798 0.541168
vt 0.620897 0.235002
vt 0.622348 0.234071
vt 0.622348 0.233462
vt 0.622348 0.232874
vt 0.622348 0.231915
vt 0.622348 0.232346
vt 0.621262 0.231915
vt 0.660656 0.235034
vt 0.660656 0.235562
vt 0.660656 0.234446
vt 0.660656 0.233836
vt 0.660656 0.233248
vt 0.660656 0.232720
vt 0.538261 0.235506
vt 0.537176 0.235506
vt 0.538261 0.235075
vt 0.538261 0.234548
vt 0.538261 0.233959
vt 0.538261 0.233350
vt 0.538261 0.232761
vt 0.538261 0.232233
vt 0.538261 0.231802
vt 0.537176 0.231802
vt 0.649421 0.545772
vt 0.649421 0.546299
vt 0.649421 0.545183
vt 0.649421 0.544574
vt 0.649421 0.543457
vt 0.649421 0.543985
vt 0.622348 0.235619
vt 0.621262 0.235619
vt 0.622348 0.235188
vt 0.535782 0.232701
vt 0.535783 0.234283
vt 0.535951 0.233989
vt 0.535544 0.232461
vt 0.536357 0.234726
vt 0.535253 0.234692
vt 0.534928 0.234780
vt 0.535023 0.235503
vt 0.534497 0.235503
vt 0.622377 0.234543
vt 0.622377 0.235002
vt 0.622742 0.235188
vt 0.622742 0.234660
vt 0.533349 0.231640
vt 0.532922 0.232071
vt 0.533162 0.232257
vt 0.536170 0.235343
vt 0.536597 0.234913
vt 0.650901 0.545143
vt 0.650536 0.545183
vt 0.650536 0.545772
vt 0.650901 0.544614
vt 0.533163 0.234727
vt 0.532922 0.234913
vt 0.533350 0.235344
vt 0.622742 0.232873
vt 0.622742 0.232346
vt 0.622377 0.232532
vt 0.623828 0.233462
vt 0.623828 0.232873
vt 0.623828 0.235188
vt 0.623828 0.234660
vt 0.622742 0.235619
vt 0.619782 0.231915
vt 0.619782 0.232346
vt 0.620868 0.232346
vt 0.649450 0.545772
vt 0.650536 0.543985
vt 0.649450 0.543985
vt 0.649450 0.544574
vt 0.650536 0.543457
vt 0.622742 0.231915
vt 0.623828 0.232346
vn -0.0000 -0.9892 0.1467
vn -0.0358 -0.9935 0.1081
vn 0.0417 -0.9911 0.1262
vn 0.0519 -0.9955 0.0791
vn -0.0430 -0.9969 0.0655
vn 0.0491 -0.9978 0.0437
vn -0.0421 -0.9984 0.0375
vn 0.0443 -0.9988 0.0222
vn -0.0399 -0.9990 0.0201
vn 0.0405 -0.9991 0.0084
vn -0.0240 -0.9997 0.0064
vn 0.0241 -0.9997 -0.0000
vn -0.0382 -0.9993 0.0022
vn 0.0385 -0.9992 -0.0079
vn -0.0405 -0.9991 -0.0084
vn 0.0399 -0.9990 -0.0201
vn -0.0443 -0.9988 -0.0223
vn 0.0421 -0.9984 -0.0375
vn -0.0491 -0.9978 -0.0438
vn 0.0430 -0.9969 -0.0655
vn -0.0519 -0.9955 -0.0791
vn 0.0358 -0.9935 -0.1081
vn -0.0417 -0.9911 -0.1262
vn -0.0000 -0.9892 -0.1467
vn 0.0200 -0.8683 0.4956
vn -0.0968 -0.8932 0.4392
vn 0.0940 -0.9267 0.3639
vn 0.2485 -0.8653 0.4354
vn 0.3278 -0.8933 0.3076
vn 0.3239 -0.9267 0.1909
vn 0.4288 -0.8931 0.1357
vn 0.4135 -0.9104 0.0151
vn 0.4377 -0.8933 -0.1024
vn 0.3963 -0.8933 -0.2122
vn 0.3278 -0.8933 -0.3076
vn 0.2485 -0.8653 -0.4353
vn 0.0968 -0.8932 -0.4392
vn -0.0000 -0.9075 -0.4201
vn -0.0968 -0.8932 -0.4392
vn -0.2485 -0.8653 -0.4353
vn -0.3279 -0.8933 -0.3075
vn -0.3238 -0.9267 -0.1909
vn -0.4288 -0.8932 -0.1357
vn -0.4493 -0.8932 -0.0202
vn -0.4033 -0.9104 0.0924
vn -0.3963 -0.8932 0.2122
vn -0.3278 -0.8933 0.3076
vn -0.2485 -0.8653 0.4354
vn 0.0230 -0.1980 0.9799
vn -0.2313 -0.1981 0.9525
vn 0.2803 -0.2381 0.9299
vn 0.5247 -0.1503 0.8379
vn 0.8257 -0.2380 0.5113
vn 0.9406 -0.1980 0.2758
vn 0.9799 -0.1981 0.0231
vn 0.9525 -0.1980 -0.2314
vn 0.8602 -0.1981 -0.4699
vn 0.6926 -0.1593 -0.7035
vn 0.4634 -0.1503 -0.8733
vn 0.2314 -0.1981 -0.9525
vn -0.0300 -0.2381 -0.9708
vn -0.2941 -0.1980 -0.9351
vn -0.5247 -0.1503 -0.8379
vn -0.6736 -0.2609 -0.6915
vn -0.8257 -0.2381 -0.5113
vn -0.9406 -0.1980 -0.2757
vn -0.9525 -0.1980 0.2314
vn -0.9799 -0.1981 -0.0231
vn -0.8602 -0.1980 0.4699
vn -0.6926 -0.1593 0.7035
vn -0.0438 0.0000 0.9990
vn 0.2162 0.0000 0.9764
vn 0.4616 0.0000 0.8871
vn 0.8872 0.0000 0.4614
vn 0.7070 0.0000 0.7072
vn 0.9763 0.0000 0.2163
vn 0.9990 -0.0000 -0.0439
vn 0.9537 0.0000 -0.3008
vn 0.8433 -0.0000 -0.5375
vn 0.7070 0.0000 -0.7072
vn 0.5375 0.0000 -0.8433
vn 0.3009 0.0000 -0.9536
vn 0.0438 0.0000 -0.9990
vn -0.2162 0.0000 -0.9764
vn -0.4616 0.0000 -0.8871
vn -0.7070 0.0000 -0.7072
vn -0.8872 -0.0000 -0.4614
vn -0.9763 -0.0000 -0.2162
vn -0.9990 0.0000 0.0439
vn -0.9537 0.0000 0.3009
vn -0.7071 0.0000 0.7072
vn -0.8433 0.0000 0.5375
vn -0.5375 0.0000 0.8433
vn 0.6736 -0.2608 0.6915
vn -0.4634 -0.1503 0.8733
vn -0.3009 0.0000 0.9536
f 11/1/1 12/2/2 10/3/3
f 10/3/3 12/2/2 13/4/4
f 12/2/2 14/5/5 13/4/4
f 13/4/4 14/5/5 15/6/6
f 14/5/5 16/7/7 15/6/6
f 15/6/6 16/7/7 17/8/8
f 16/7/7 18/9/9 17/8/8
f 17/8/8 18/9/9 9/10/10
f 18/9/9 19/11/11 9/10/10
f 9/10/10 19/11/11 20/12/12
f 19/11/11 8/13/13 20/12/12
f 20/12/12 8/13/13 21/14/14
f 8/13/13 7/15/15 21/14/14
f 21/14/14 7/15/15 6/16/16
f 7/15/15 22/17/17 6/16/16
f 6/16/16 22/17/17 5/18/18
f 22/17/17 4/19/19 5/18/18
f 3/20/20 2/21/21 23/22/22
f 2/21/21 24/23/23 23/22/22
f 1/24/24 23/22/22 24/23/23
f 25/25/25 26/26/26 11/1/1
f 12/2/2 11/1/1 26/26/26
f 25/25/25 11/1/1 27/27/27
f 10/3/3 27/27/27 11/1/1
f 27/27/27 10/3/3 28/28/28
f 13/4/4 28/28/28 10/3/3
f 28/28/28 13/4/4 29/29/29
f 15/6/6 29/29/29 13/4/4
f 29/29/29 15/6/6 30/30/30
f 17/8/8 30/30/30 15/6/6
f 30/30/30 17/8/8 31/31/31
f 9/10/10 31/31/31 17/8/8
f 31/31/31 9/10/10 32/32/32
f 20/12/12 32/32/32 9/10/10
f 20/12/12 21/14/14 32/32/32
f 33/33/33 32/32/32 21/14/14
f 21/14/14 6/16/16 33/33/33
f 34/34/34 33/33/33 6/16/16
f 6/16/16 5/18/18 34/34/34
f 35/35/35 34/34/34 5/18/18
f 5/18/18 3/20/20 35/35/35
f 36/36/36 35/35/35 3/20/20
f 3/20/20 23/22/22 36/36/36
f 37/37/37 36/36/36 23/22/22
f 23/22/22 1/24/24 37/37/37
f 38/38/38 37/37/37 1/24/24
f 24/23/23 39/39/39 1/24/24
f 38/38/38 1/24/24 39/39/39
f 2/21/21 40/40/40 24/23/23
f 39/39/39 24/23/23 40/40/40
f 40/40/40 2/21/21 41/41/41
f 22/17/17 42/42/42 4/19/19
f 41/41/41 4/19/19 42/42/42
f 7/15/15 43/43/43 22/17/17
f 42/42/42 22/17/17 43/43/43
f 43/43/43 7/15/15 44/44/44
f 19/11/11 45/45/45 8/13/13
f 46/46/46 45/45/45 18/9/9
f 19/11/11 18/9/9 45/45/45
f 47/47/47 46/46/46 16/7/7
f 18/9/9 16/7/7 46/46/46
f 48/48/48 47/47/47 14/5/5
f 16/7/7 14/5/5 47/47/47
f 26/26/26 48/48/48 12/2/2
f 14/5/5 12/2/2 48/48/48
f 25/49/25 50/50/49 26/51/26
f 49/52/50 26/51/26 50/50/49
f 27/53/27 51/54/51 25/49/25
f 50/50/49 25/49/25 51/54/51
f 52/55/52 51/54/51 28/56/28
f 27/53/27 28/56/28 51/54/51
f 30/30/30 54/57/53 29/29/29
f 55/58/54 54/59/53 31/60/31
f 30/61/30 31/60/31 54/59/53
f 56/62/55 55/58/54 32/63/32
f 31/60/31 32/63/32 55/58/54
f 57/64/56 56/62/55 33/65/33
f 32/63/32 33/65/33 56/62/55
f 58/66/57 57/64/56 34/67/34
f 33/65/33 34/67/34 57/64/56
f 34/67/34 35/68/35 58/66/57
f 59/69/58 58/66/57 35/68/35
f 35/35/35 36/36/36 59/70/58
f 60/71/59 59/70/58 36/36/36
f 60/72/59 36/73/36 61/74/60
f 37/75/37 61/74/60 36/73/36
f 61/74/60 37/75/37 62/76/61
f 38/77/38 62/76/61 37/75/37
f 38/77/38 39/78/39 62/76/61
f 63/79/62 62/76/61 39/78/39
f 39/78/39 40/80/40 63/79/62
f 64/81/63 63/79/62 40/80/40
f 41/82/41 65/83/64 40/80/40
f 64/81/63 40/80/40 65/83/64
f 42/42/42 66/84/65 41/41/41
f 67/85/66 66/86/65 43/87/43
f 42/88/42 43/87/43 66/86/65
f 43/87/43 44/89/44 67/85/66
f 69/90/67 68/91/68 45/92/45
f 70/93/69 69/90/67 46/94/46
f 45/92/45 46/94/46 69/90/67
f 71/95/70 70/93/69 47/96/47
f 46/94/46 47/96/47 70/93/69
f 47/47/47 48/48/48 71/97/70
f 26/51/26 49/52/50 48/98/48
f 50/50/49 73/99/71 49/52/50
f 51/54/51 75/100/72 50/50/49
f 73/99/71 50/50/49 75/100/72
f 52/55/52 76/101/73 51/54/51
f 75/100/72 51/54/51 76/101/73
f 78/102/74 77/103/75 54/104/53
f 79/105/76 78/106/74 55/58/54
f 54/59/53 55/58/54 78/106/74
f 80/107/77 79/105/76 56/62/55
f 55/58/54 56/62/55 79/105/76
f 81/108/78 80/107/77 57/64/56
f 56/62/55 57/64/56 80/107/77
f 82/109/79 81/108/78 58/66/57
f 57/64/56 58/66/57 81/108/78
f 83/110/80 82/109/79 59/69/58
f 58/66/57 59/69/58 82/109/79
f 83/111/80 59/112/58 84/113/81
f 84/113/81 60/72/59 85/114/82
f 61/74/60 85/114/82 60/72/59
f 85/114/82 61/74/60 86/115/83
f 62/76/61 86/115/83 61/74/60
f 86/115/83 62/76/61 87/116/84
f 63/79/62 87/116/84 62/76/61
f 87/116/84 63/79/62 88/117/85
f 64/81/63 88/117/85 63/79/62
f 88/117/85 64/81/63 89/118/86
f 65/83/64 89/118/86 64/81/63
f 90/119/87 89/118/86 66/120/65
f 65/83/64 66/120/65 89/118/86
f 91/121/88 90/122/87 67/85/66
f 66/86/65 67/85/66 90/122/87
f 92/123/89 91/121/88 68/91/68
f 93/124/90 92/123/89 69/90/67
f 68/91/68 69/90/67 92/123/89
f 69/90/67 70/93/69 93/124/90
f 95/125/91 94/126/92 71/95/70
f 95/127/91 71/128/70 96/129/93
f 3/130/20 4/131/19 2/132/21
f 3/130/20 5/133/18 4/131/19
f 2/132/21 4/131/19 41/134/41
f 7/135/15 8/136/13 44/137/44
f 45/138/45 44/137/44 8/136/13
f 28/139/28 29/140/29 53/141/94
f 53/141/94 52/142/52 28/139/28
f 54/143/53 53/144/94 29/145/29
f 66/146/65 65/147/64 41/134/41
f 44/148/44 68/149/68 67/150/66
f 68/149/68 44/148/44 45/151/45
f 48/152/48 72/153/95 71/154/70
f 49/155/50 72/156/95 48/157/48
f 73/158/71 74/159/96 49/155/50
f 77/160/75 76/161/73 52/142/52
f 52/142/52 53/141/94 77/160/75
f 77/160/75 53/141/94 54/162/53
f 59/163/58 60/164/59 84/165/81
f 91/166/88 67/150/66 68/149/68
f 70/167/69 94/168/92 93/169/90
f 94/168/92 70/167/69 71/170/70
f 71/171/70 72/156/95 96/172/93
f 74/159/96 96/172/93 72/156/95
f 72/156/95 49/155/50 74/159/96
