# Blender v2.82 (sub 7) OBJ File: ''
# www.blender.org
mtllib default.mtl
usemtl default
v -0.070530 -0.478940 0.467653
v -0.074332 -0.478940 0.468671
v -0.066729 -0.478940 0.468671
v -0.075907 -0.478940 0.469880
v -0.065154 -0.478940 0.469880
v -0.063945 -0.478940 0.471455
v -0.077875 -0.478940 0.473288
v -0.078134 -0.478940 0.475256
v -0.063186 -0.478940 0.477224
v -0.068562 -0.478940 0.482601
v -0.070530 -0.478940 0.482860
v -0.072498 -0.478940 0.482601
v -0.066729 -0.478940 0.481842
v -0.074332 -0.478940 0.481842
v -0.065154 -0.478940 0.480633
v -0.075907 -0.478940 0.480633
v -0.063945 -0.478940 0.479058
v -0.077116 -0.478940 0.479058
v -0.077875 -0.478940 0.477224
v -0.062927 -0.478940 0.475256
v -0.063186 -0.478940 0.473288
v -0.077116 -0.478940 0.471455
v -0.068562 -0.478940 0.467912
v -0.072498 -0.478940 0.467912
v -0.070530 -0.478292 0.487129
v -0.073603 -0.478292 0.486724
v -0.067458 -0.478292 0.486724
v -0.064594 -0.478292 0.485538
v -0.062136 -0.478292 0.483651
v -0.060249 -0.478292 0.481193
v -0.059063 -0.478292 0.478329
v -0.058658 -0.478292 0.475256
v -0.059063 -0.478292 0.472184
v -0.060249 -0.478292 0.469320
v -0.062136 -0.478292 0.466862
v -0.064594 -0.478292 0.464975
v -0.067458 -0.478292 0.463789
v -0.070530 -0.478292 0.463384
v -0.073603 -0.478292 0.463789
v -0.076467 -0.478292 0.464975
v -0.078925 -0.478292 0.466862
v -0.080812 -0.478292 0.469320
v -0.081998 -0.478292 0.472184
v -0.082403 -0.478292 0.475256
v -0.081998 -0.478292 0.478329
v -0.080812 -0.478292 0.481193
v -0.078925 -0.478292 0.483651
v -0.076467 -0.478292 0.485538
v -0.074066 -0.476136 0.488452
v -0.070530 -0.476136 0.488917
v -0.066995 -0.476136 0.488452
v -0.063700 -0.476136 0.487087
v -0.060871 -0.476136 0.484916
v -0.058700 -0.476136 0.482087
v -0.057335 -0.476136 0.478792
v -0.056870 -0.476136 0.475256
v -0.057335 -0.476136 0.471721
v -0.058700 -0.476136 0.468426
v -0.060871 -0.476136 0.465597
v -0.063700 -0.476136 0.463426
v -0.066995 -0.476136 0.462061
v -0.070530 -0.476136 0.461596
v -0.074066 -0.476136 0.462061
v -0.077361 -0.476136 0.463426
v -0.080190 -0.476136 0.465597
v -0.082361 -0.476136 0.468426
v -0.083726 -0.476136 0.471721
v -0.084191 -0.476136 0.475256
v -0.083726 -0.476136 0.478792
v -0.082361 -0.476136 0.482087
v -0.080190 -0.476136 0.484916
v -0.077361 -0.476136 0.487087
v -0.070530 -0.469735 0.488917
v -0.074066 -0.469735 0.488452
v -0.066995 -0.469735 0.488452
v -0.063700 -0.469735 0.487087
v -0.060871 -0.469735 0.484916
v -0.058700 -0.469735 0.482087
v -0.057335 -0.469735 0.478792
v -0.056870 -0.469735 0.475256
v -0.057335 -0.469735 0.471721
v -0.058700 -0.469735 0.468426
v -0.060871 -0.469735 0.465597
v -0.063700 -0.469735 0.463426
v -0.066995 -0.469735 0.462061
v -0.070530 -0.469735 0.461596
v -0.074066 -0.469735 0.462061
v -0.077361 -0.469735 0.463426
v -0.080190 -0.469735 0.465597
v -0.082361 -0.469735 0.468426
v -0.083726 -0.469735 0.471721
v -0.084191 -0.469735 0.475256
v -0.083726 -0.469735 0.478792
v -0.082361 -0.469735 0.482087
v -0.080190 -0.469735 0.484916
v -0.077361 -0.469735 0.487087
vt 0.675137 0.392127
vt 0.675428 0.391957
vt 0.674899 0.392367
vt 0.674730 0.392660
vt 0.675753 0.391869
vt 0.674643 0.392988
vt 0.676090 0.391869
vt 0.674644 0.393327
vt 0.676415 0.391957
vt 0.674731 0.393655
vt 0.676706 0.392127
vt 0.674899 0.393949
vt 0.676944 0.392366
vt 0.675137 0.394188
vt 0.677113 0.392660
vt 0.675429 0.394358
vt 0.677200 0.392987
vt 0.675754 0.394446
vt 0.677200 0.393327
vt 0.676090 0.394446
vt 0.677113 0.393654
vt 0.676415 0.394358
vt 0.676945 0.393948
vt 0.676707 0.394188
vt 0.674696 0.391548
vt 0.675151 0.391284
vt 0.674324 0.391923
vt 0.674062 0.392382
vt 0.673926 0.392893
vt 0.673926 0.393423
vt 0.674062 0.393934
vt 0.674325 0.394393
vt 0.674697 0.394767
vt 0.675152 0.395032
vt 0.675659 0.395169
vt 0.676185 0.395169
vt 0.676693 0.395031
vt 0.677148 0.394767
vt 0.677519 0.394392
vt 0.677782 0.393933
vt 0.677917 0.393422
vt 0.677917 0.392892
vt 0.677781 0.392381
vt 0.677519 0.391922
vt 0.677147 0.391548
vt 0.676692 0.391283
vt 0.676184 0.391146
vt 0.675659 0.391146
vt 0.651787 0.392100
vt 0.652152 0.391914
vt 0.651787 0.392559
vt 0.652152 0.392442
vt 0.674084 0.391737
vt 0.674511 0.391306
vt 0.646856 0.545767
vt 0.646856 0.546295
vt 0.646490 0.545650
vt 0.646490 0.546109
vt 0.646490 0.544609
vt 0.646856 0.544569
vt 0.646490 0.545139
vt 0.646856 0.543981
vt 0.646490 0.544098
vt 0.646856 0.543453
vt 0.646490 0.543639
vt 0.674512 0.395010
vt 0.674084 0.394579
vt 0.645376 0.545767
vt 0.645376 0.546295
vt 0.645010 0.545650
vt 0.645010 0.546109
vt 0.645010 0.545139
vt 0.645376 0.545179
vt 0.645010 0.544609
vt 0.645376 0.544569
vt 0.645376 0.543981
vt 0.645010 0.544098
vt 0.645376 0.543453
vt 0.645010 0.543639
vt 0.677332 0.395009
vt 0.677760 0.394578
vt 0.625337 0.235437
vt 0.625337 0.234978
vt 0.625702 0.235623
vt 0.625702 0.235095
vt 0.625337 0.234467
vt 0.625702 0.234507
vt 0.625337 0.233937
vt 0.625702 0.233897
vt 0.625702 0.233309
vt 0.625337 0.233426
vt 0.625337 0.232967
vt 0.677331 0.391305
vt 0.677759 0.391736
vt 0.652152 0.394228
vt 0.652153 0.394756
vt 0.651787 0.394111
vt 0.651787 0.394570
vt 0.652153 0.393640
vt 0.651787 0.393600
vt 0.651787 0.393070
vt 0.653238 0.391914
vt 0.652152 0.391483
vt 0.653238 0.391483
vt 0.647941 0.545767
vt 0.647941 0.546295
vt 0.647941 0.544569
vt 0.647941 0.545179
vt 0.647941 0.543981
vt 0.647941 0.543453
vt 0.647941 0.543022
vt 0.646856 0.543022
vt 0.646461 0.545767
vt 0.646461 0.546295
vt 0.646461 0.545179
vt 0.646461 0.544569
vt 0.646461 0.543981
vt 0.646461 0.543453
vt 0.646461 0.543022
vt 0.645376 0.543022
vt 0.626787 0.235623
vt 0.626787 0.235095
vt 0.626787 0.234507
vt 0.626787 0.233897
vt 0.626787 0.233309
vt 0.626787 0.232781
vt 0.625702 0.232781
vt 0.626787 0.232350
vt 0.625702 0.232350
vt 0.653238 0.394756
vt 0.653238 0.393640
vt 0.653238 0.394228
vt 0.653238 0.393030
vt 0.672272 0.537198
vt 0.673382 0.538317
vt 0.673295 0.537989
vt 0.671936 0.537198
vt 0.674100 0.538222
vt 0.673295 0.538983
vt 0.673126 0.539277
vt 0.673701 0.539721
vt 0.673329 0.540095
vt 0.628267 0.234978
vt 0.628267 0.234467
vt 0.627902 0.234507
vt 0.627902 0.235095
vt 0.627902 0.233897
vt 0.520849 0.224668
vt 0.520849 0.224059
vt 0.520483 0.224099
vt 0.520483 0.225599
vt 0.520849 0.225785
vt 0.520849 0.225257
vt 0.673941 0.539907
vt 0.653286 0.233970
vt 0.653651 0.234010
vt 0.653651 0.233401
vt 0.653651 0.234599
vt 0.654737 0.235127
vt 0.654737 0.234599
vt 0.626817 0.234507
vt 0.626817 0.235095
vt 0.649211 0.233401
vt 0.649211 0.234010
vt 0.650297 0.234010
vt 0.521934 0.225257
vt 0.653651 0.232813
vt 0.654737 0.232813
vt 0.654737 0.232285
vt 0.654737 0.234010
vn 0.0000 -0.9892 0.1467
vn -0.0357 -0.9935 0.1081
vn 0.0417 -0.9911 0.1262
vn 0.0520 -0.9955 0.0791
vn -0.0430 -0.9969 0.0655
vn 0.0491 -0.9978 0.0438
vn -0.0421 -0.9984 0.0375
vn 0.0442 -0.9988 0.0222
vn -0.0399 -0.9990 0.0201
vn 0.0405 -0.9991 0.0084
vn -0.0240 -0.9997 0.0064
vn 0.0242 -0.9997 0.0000
vn -0.0383 -0.9993 0.0022
vn 0.0385 -0.9992 -0.0080
vn -0.0405 -0.9991 -0.0084
vn 0.0399 -0.9990 -0.0201
vn -0.0442 -0.9988 -0.0222
vn 0.0421 -0.9984 -0.0375
vn -0.0491 -0.9978 -0.0438
vn 0.0430 -0.9969 -0.0655
vn -0.0519 -0.9955 -0.0791
vn 0.0357 -0.9935 -0.1081
vn -0.0417 -0.9911 -0.1262
vn -0.0000 -0.9892 -0.1467
vn 0.0200 -0.8683 0.4956
vn -0.0968 -0.8932 0.4392
vn 0.0940 -0.9267 0.3639
vn 0.2485 -0.8653 0.4353
vn 0.3279 -0.8933 0.3075
vn 0.3238 -0.9266 0.1909
vn 0.4288 -0.8932 0.1357
vn 0.4134 -0.9104 0.0151
vn 0.4377 -0.8933 -0.1024
vn 0.3963 -0.8932 -0.2122
vn 0.3279 -0.8933 -0.3076
vn 0.2485 -0.8653 -0.4353
vn 0.0968 -0.8932 -0.4392
vn 0.0000 -0.9075 -0.4201
vn -0.0968 -0.8932 -0.4392
vn -0.2485 -0.8653 -0.4353
vn -0.3279 -0.8933 -0.3075
vn -0.3238 -0.9266 -0.1909
vn -0.4288 -0.8932 -0.1358
vn -0.4493 -0.8932 -0.0201
vn -0.4033 -0.9104 0.0924
vn -0.3963 -0.8932 0.2123
vn -0.3279 -0.8933 0.3075
vn -0.2485 -0.8653 0.4353
vn 0.0230 -0.1981 0.9799
vn -0.2313 -0.1981 0.9525
vn 0.2803 -0.2381 0.9299
vn 0.5247 -0.1503 0.8379
vn 0.8257 -0.2381 0.5114
vn 0.9406 -0.1981 0.2758
vn 0.9799 -0.1980 0.0230
vn 0.9525 -0.1981 -0.2314
vn 0.8601 -0.1981 -0.4701
vn 0.6926 -0.1594 -0.7035
vn 0.4634 -0.1503 -0.8733
vn 0.2314 -0.1981 -0.9525
vn -0.0300 -0.2381 -0.9708
vn -0.2940 -0.1980 -0.9351
vn -0.5247 -0.1503 -0.8379
vn -0.6737 -0.2609 -0.6914
vn -0.8257 -0.2381 -0.5114
vn -0.9406 -0.1981 -0.2759
vn -0.9525 -0.1981 0.2313
vn -0.9799 -0.1981 -0.0230
vn -0.8601 -0.1981 0.4701
vn -0.6927 -0.1594 0.7034
vn -0.0438 0.0000 0.9990
vn 0.2162 0.0000 0.9764
vn 0.4616 0.0000 0.8871
vn 0.8871 0.0000 0.4616
vn 0.7071 0.0000 0.7071
vn 0.9764 0.0000 0.2162
vn 0.9990 0.0000 -0.0438
vn 0.9536 -0.0000 -0.3009
vn 0.8432 0.0000 -0.5375
vn 0.7071 0.0000 -0.7071
vn 0.5375 0.0000 -0.8432
vn 0.3009 0.0000 -0.9536
vn 0.0438 0.0000 -0.9990
vn -0.2162 0.0000 -0.9764
vn -0.4616 0.0000 -0.8871
vn -0.7071 0.0000 -0.7071
vn -0.8871 0.0000 -0.4616
vn -0.9764 0.0000 -0.2162
vn -0.9990 0.0000 0.0438
vn -0.9537 0.0000 0.3009
vn -0.7071 0.0000 0.7071
vn -0.8432 0.0000 0.5375
vn -0.5375 0.0000 0.8432
vn 0.6737 -0.2609 0.6914
vn -0.4634 -0.1503 0.8733
vn -0.3009 0.0000 0.9537
f 11/1/1 12/2/2 10/3/3
f 10/3/3 12/2/2 13/4/4
f 12/2/2 14/5/5 13/4/4
f 13/4/4 14/5/5 15/6/6
f 14/5/5 16/7/7 15/6/6
f 15/6/6 16/7/7 17/8/8
f 16/7/7 18/9/9 17/8/8
f 17/8/8 18/9/9 9/10/10
f 18/9/9 19/11/11 9/10/10
f 9/10/10 19/11/11 20/12/12
f 19/11/11 8/13/13 20/12/12
f 20/12/12 8/13/13 21/14/14
f 8/13/13 7/15/15 21/14/14
f 21/14/14 7/15/15 6/16/16
f 7/15/15 22/17/17 6/16/16
f 6/16/16 22/17/17 5/18/18
f 22/17/17 4/19/19 5/18/18
f 3/20/20 2/21/21 23/22/22
f 2/21/21 24/23/23 23/22/22
f 1/24/24 23/22/22 24/23/23
f 25/25/25 26/26/26 11/1/1
f 12/2/2 11/1/1 26/26/26
f 25/25/25 11/1/1 27/27/27
f 10/3/3 27/27/27 11/1/1
f 27/27/27 10/3/3 28/28/28
f 13/4/4 28/28/28 10/3/3
f 28/28/28 13/4/4 29/29/29
f 15/6/6 29/29/29 13/4/4
f 29/29/29 15/6/6 30/30/30
f 17/8/8 30/30/30 15/6/6
f 30/30/30 17/8/8 31/31/31
f 9/10/10 31/31/31 17/8/8
f 31/31/31 9/10/10 32/32/32
f 20/12/12 32/32/32 9/10/10
f 20/12/12 21/14/14 32/32/32
f 33/33/33 32/32/32 21/14/14
f 21/14/14 6/16/16 33/33/33
f 34/34/34 33/33/33 6/16/16
f 6/16/16 5/18/18 34/34/34
f 35/35/35 34/34/34 5/18/18
f 5/18/18 3/20/20 35/35/35
f 36/36/36 35/35/35 3/20/20
f 3/20/20 23/22/22 36/36/36
f 37/37/37 36/36/36 23/22/22
f 23/22/22 1/24/24 37/37/37
f 38/38/38 37/37/37 1/24/24
f 24/23/23 39/39/39 1/24/24
f 38/38/38 1/24/24 39/39/39
f 2/21/21 40/40/40 24/23/23
f 39/39/39 24/23/23 40/40/40
f 40/40/40 2/21/21 41/41/41
f 22/17/17 42/42/42 4/19/19
f 41/41/41 4/19/19 42/42/42
f 7/15/15 43/43/43 22/17/17
f 42/42/42 22/17/17 43/43/43
f 43/43/43 7/15/15 44/44/44
f 19/11/11 45/45/45 8/13/13
f 46/46/46 45/45/45 18/9/9
f 19/11/11 18/9/9 45/45/45
f 47/47/47 46/46/46 16/7/7
f 18/9/9 16/7/7 46/46/46
f 48/48/48 47/47/47 14/5/5
f 16/7/7 14/5/5 47/47/47
f 26/26/26 48/48/48 12/2/2
f 14/5/5 12/2/2 48/48/48
f 25/49/25 50/50/49 26/51/26
f 49/52/50 26/51/26 50/50/49
f 27/27/27 51/53/51 25/25/25
f 50/54/49 25/25/25 51/53/51
f 52/55/52 51/56/51 28/57/28
f 27/58/27 28/57/28 51/56/51
f 30/59/30 54/60/53 29/61/29
f 55/62/54 54/60/53 31/63/31
f 30/59/30 31/63/31 54/60/53
f 56/64/55 55/62/54 32/65/32
f 31/63/31 32/65/32 55/62/54
f 57/66/56 56/67/55 33/33/33
f 32/32/32 33/33/33 56/67/55
f 58/68/57 57/69/56 34/70/34
f 33/71/33 34/70/34 57/69/56
f 34/70/34 35/72/35 58/68/57
f 59/73/58 58/68/57 35/72/35
f 35/72/35 36/74/36 59/73/58
f 60/75/59 59/73/58 36/74/36
f 60/75/59 36/74/36 61/76/60
f 37/77/37 61/76/60 36/74/36
f 61/76/60 37/77/37 62/78/61
f 38/79/38 62/78/61 37/77/37
f 38/38/38 39/39/39 62/80/61
f 63/81/62 62/80/61 39/39/39
f 39/82/39 40/83/40 63/84/62
f 64/85/63 63/84/62 40/83/40
f 41/86/41 65/87/64 40/83/40
f 64/85/63 40/83/40 65/87/64
f 42/88/42 66/89/65 41/86/41
f 67/90/66 66/89/65 43/91/43
f 42/88/42 43/91/43 66/89/65
f 43/91/43 44/92/44 67/90/66
f 69/93/67 68/94/68 45/45/45
f 70/95/69 69/96/67 46/97/46
f 45/98/45 46/97/46 69/96/67
f 71/99/70 70/95/69 47/100/47
f 46/97/46 47/100/47 70/95/69
f 47/100/47 48/101/48 71/99/70
f 26/51/26 49/52/50 48/101/48
f 50/50/49 73/102/71 49/52/50
f 51/103/51 75/104/72 50/50/49
f 73/102/71 50/50/49 75/104/72
f 52/55/52 76/105/73 51/56/51
f 75/106/72 51/56/51 76/105/73
f 78/107/74 77/108/75 54/60/53
f 79/109/76 78/107/74 55/62/54
f 54/60/53 55/62/54 78/107/74
f 80/110/77 79/109/76 56/64/55
f 55/62/54 56/64/55 79/109/76
f 81/111/78 80/110/77 57/112/56
f 56/64/55 57/112/56 80/110/77
f 82/113/79 81/114/78 58/68/57
f 57/69/56 58/68/57 81/114/78
f 83/115/80 82/113/79 59/73/58
f 58/68/57 59/73/58 82/113/79
f 83/115/80 59/73/58 84/116/81
f 84/116/81 60/75/59 85/117/82
f 61/76/60 85/117/82 60/75/59
f 85/117/82 61/76/60 86/118/83
f 62/78/61 86/118/83 61/76/60
f 86/118/83 62/78/61 87/119/84
f 63/120/62 87/119/84 62/78/61
f 87/121/84 63/84/62 88/122/85
f 64/85/63 88/122/85 63/84/62
f 88/122/85 64/85/63 89/123/86
f 65/87/64 89/123/86 64/85/63
f 90/124/87 89/123/86 66/89/65
f 65/87/64 66/89/65 89/123/86
f 91/125/88 90/124/87 67/90/66
f 66/89/65 67/90/66 90/124/87
f 92/126/89 91/125/88 68/127/68
f 93/128/90 92/126/89 69/129/67
f 68/127/68 69/129/67 92/126/89
f 69/96/67 70/95/69 93/130/90
f 95/131/91 94/132/92 71/99/70
f 95/131/91 71/99/70 96/133/93
f 3/134/20 4/135/19 2/136/21
f 3/134/20 5/137/18 4/135/19
f 2/136/21 4/135/19 41/138/41
f 7/139/15 8/140/13 44/141/44
f 45/142/45 44/141/44 8/140/13
f 28/143/28 29/144/29 53/145/94
f 53/145/94 52/146/52 28/143/28
f 54/147/53 53/145/94 29/144/29
f 66/148/65 65/149/64 41/150/41
f 44/151/44 68/152/68 67/153/66
f 68/154/68 44/141/44 45/142/45
f 48/155/48 72/156/95 71/157/70
f 49/158/50 72/156/95 48/155/48
f 73/159/71 74/160/96 49/158/50
f 77/161/75 76/162/73 52/146/52
f 52/146/52 53/145/94 77/161/75
f 77/161/75 53/145/94 54/147/53
f 59/163/58 60/164/59 84/165/81
f 91/166/88 67/153/66 68/152/68
f 70/167/69 94/168/92 93/169/90
f 94/168/92 70/167/69 71/157/70
f 71/157/70 72/156/95 96/170/93
f 74/160/96 96/170/93 72/156/95
f 72/156/95 49/158/50 74/160/96
